<svg width="20.000000" height="17.501587" viewBox="0 0 20 17.5016" fill="none" xmlns="http://www.w3.org/2000/svg" xmlns:xlink="http://www.w3.org/1999/xlink">
	<desc>
			Created with Pixso.
	</desc>
	<defs/>
	<path id="Vector" d="M1.25 7.5L16.07 7.5L11.53 2.05C11.32 1.79 11.22 1.46 11.25 1.13C11.28 0.8 11.44 0.5 11.7 0.28C11.95 0.07 12.28 -0.03 12.61 0C12.94 0.03 13.25 0.19 13.46 0.45L19.71 7.95C19.75 8.01 19.79 8.07 19.82 8.13C19.82 8.2 19.82 8.23 19.91 8.3C19.96 8.44 19.99 8.59 20 8.75C19.99 8.9 19.96 9.05 19.91 9.2C19.91 9.26 19.91 9.3 19.82 9.36C19.79 9.42 19.75 9.49 19.71 9.55L13.46 17.05C13.34 17.19 13.19 17.3 13.03 17.38C12.86 17.46 12.68 17.5 12.5 17.5C12.2 17.5 11.92 17.4 11.7 17.21C11.57 17.1 11.46 16.98 11.39 16.83C11.31 16.68 11.26 16.53 11.25 16.36C11.23 16.2 11.25 16.03 11.3 15.88C11.35 15.72 11.43 15.57 11.53 15.45L16.07 10L1.25 10C0.91 10 0.6 9.86 0.36 9.63C0.13 9.4 0 9.08 0 8.75C0 8.42 0.13 8.1 0.36 7.86C0.6 7.63 0.91 7.5 1.25 7.5Z" fill="#FFFFFF" fill-opacity="1.000000" fill-rule="nonzero"/>
</svg>
