<svg width="30.000000" height="30.000000" viewBox="0 0 30 30" fill="none" xmlns="http://www.w3.org/2000/svg" xmlns:xlink="http://www.w3.org/1999/xlink">
	<desc>
			Created with Pixso.
	</desc>
	<defs>
		<clipPath id="clip0_106">
			<rect id="eva:arrow-back-fill" rx="-0.500000" width="29.000000" height="29.000000" transform="translate(0.500000 0.500000)" fill="white" fill-opacity="0"/>
		</clipPath>
	</defs>
	<rect id="eva:arrow-back-fill" rx="-0.500000" width="29.000000" height="29.000000" transform="translate(0.500000 0.500000)" fill="#FFFFFF" fill-opacity="0"/>
	<g clip-path="url(#clip0_106)">
		<path id="Vector" d="M23.75 13.75L8.92 13.75L13.46 8.3C13.67 8.04 13.77 7.71 13.74 7.38C13.71 7.05 13.55 6.74 13.3 6.53C13.04 6.32 12.71 6.22 12.38 6.25C12.05 6.28 11.74 6.44 11.53 6.7L5.28 14.2C5.24 14.25 5.2 14.32 5.17 14.38C5.17 14.45 5.17 14.48 5.08 14.55C5.03 14.69 5 14.84 5 15C5 15.15 5.03 15.3 5.08 15.45C5.08 15.51 5.08 15.55 5.17 15.61C5.2 15.67 5.24 15.74 5.28 15.8L11.53 23.3C11.65 23.44 11.8 23.55 11.96 23.63C12.13 23.71 12.31 23.75 12.5 23.75C12.79 23.75 13.07 23.64 13.3 23.46C13.42 23.35 13.53 23.22 13.6 23.08C13.68 22.93 13.73 22.77 13.74 22.61C13.76 22.45 13.74 22.28 13.69 22.12C13.64 21.97 13.56 21.82 13.46 21.7L8.92 16.25L23.75 16.25C24.08 16.25 24.39 16.11 24.63 15.88C24.86 15.64 25 15.33 25 15C25 14.66 24.86 14.35 24.63 14.11C24.39 13.88 24.08 13.75 23.75 13.75Z" fill="#F53838" fill-opacity="1.000000" fill-rule="nonzero"/>
	</g>
</svg>
