<svg width="13.326477" height="9.071198" viewBox="0 0 13.3265 9.0712" fill="none" xmlns="http://www.w3.org/2000/svg" xmlns:xlink="http://www.w3.org/1999/xlink">
	<desc>
			Created with Pixso.
	</desc>
	<defs/>
	<path id="Vector" d="M5.25 9.07C5.12 9.07 4.99 9.04 4.87 8.99C4.75 8.94 4.64 8.87 4.54 8.77L0.3 4.53C0.21 4.44 0.13 4.33 0.08 4.21C0.02 4.08 0 3.95 3.05e-5 3.82C-0.01 3.69 0.02 3.56 0.07 3.43C0.12 3.31 0.19 3.2 0.29 3.1C0.38 3.01 0.49 2.94 0.62 2.89C0.74 2.84 0.87 2.81 1 2.81C1.14 2.81 1.27 2.84 1.39 2.89C1.51 2.94 1.62 3.02 1.71 3.12L5.25 6.65L11.61 0.29C11.8 0.1 12.06 9.15e-5 12.32 0C12.59 -9.16e-5 12.84 0.1 13.03 0.29C13.22 0.48 13.32 0.73 13.32 0.99C13.32 1.26 13.22 1.51 13.03 1.7L5.96 8.77C5.86 8.87 5.75 8.94 5.63 8.99C5.51 9.04 5.38 9.07 5.25 9.07Z" fill="#2FAB73" fill-opacity="1.000000" fill-rule="nonzero"/>
</svg>
