<svg width="20.000000" height="20.000000" viewBox="0 0 20 20" fill="none" xmlns="http://www.w3.org/2000/svg" xmlns:xlink="http://www.w3.org/1999/xlink">
	<desc>
			Created with Pixso.
	</desc>
	<defs/>
	<path id="Vector" d="M10 0C4.48 0 0 4.48 0 10C0 15.51 4.48 20 10 20C15.51 20 20 15.51 20 10C20 4.48 15.51 0 10 0ZM8 14.41L4.99 11.41C4.6 11.02 4.6 10.39 4.99 10C5.38 9.6 6.01 9.6 6.4 9.99L7.99 11.58L12.58 7C12.97 6.6 13.6 6.6 14 7C14.39 7.39 14.39 8.02 14 8.41L8 14.41Z" fill="#2FAB73" fill-opacity="1.000000" fill-rule="nonzero"/>
</svg>
