<svg width="33.599976" height="33.600098" viewBox="0 0 33.6 33.6001" fill="none" xmlns="http://www.w3.org/2000/svg" xmlns:xlink="http://www.w3.org/1999/xlink">
	<desc>
			Created with Pixso.
	</desc>
	<defs/>
	<path id="Vector" d="M16.79 0C7.52 0 0 7.52 0 16.79C0 26.07 7.52 33.6 16.79 33.6C26.07 33.6 33.59 26.07 33.59 16.79C33.59 7.52 26.07 0 16.79 0ZM20.77 11.6L18.25 11.6C17.95 11.6 17.62 12 17.62 12.52L17.62 14.35L20.78 14.35L20.3 16.95L17.62 16.95L17.62 24.75L14.64 24.75L14.64 16.95L11.93 16.95L11.93 14.35L14.64 14.35L14.64 12.82C14.64 10.62 16.16 8.84 18.25 8.84L20.77 8.84L20.77 11.6Z" fill="#FFFFFF" fill-opacity="1.000000" fill-rule="nonzero"/>
</svg>
