<svg width="33.600006" height="33.600098" viewBox="0 0 33.6 33.6001" fill="none" xmlns="http://www.w3.org/2000/svg" xmlns:xlink="http://www.w3.org/1999/xlink">
	<desc>
			Created with Pixso.
	</desc>
	<defs/>
	<path id="Vector" d="M22.05 16.79C22.05 18.19 21.49 19.52 20.51 20.51C19.52 21.49 18.19 22.05 16.79 22.05C15.4 22.05 14.07 21.49 13.08 20.51C12.1 19.52 11.55 18.19 11.55 16.79C11.55 16.5 11.58 16.2 11.63 15.92L9.79 15.92L9.79 22.91C9.79 23.4 10.19 23.8 10.68 23.8L22.92 23.8C23.15 23.79 23.37 23.7 23.54 23.54C23.7 23.37 23.8 23.15 23.8 22.91L23.8 15.92L21.96 15.92C22.01 16.2 22.05 16.5 22.05 16.79ZM16.79 20.29C17.25 20.29 17.71 20.2 18.13 20.03C18.56 19.85 18.95 19.59 19.27 19.27C19.6 18.94 19.85 18.56 20.03 18.13C20.2 17.71 20.3 17.25 20.29 16.79C20.29 16.33 20.2 15.88 20.03 15.45C19.85 15.03 19.59 14.64 19.27 14.32C18.94 13.99 18.56 13.74 18.13 13.56C17.71 13.38 17.25 13.29 16.79 13.29C15.86 13.29 14.97 13.66 14.32 14.32C13.66 14.98 13.29 15.87 13.29 16.79C13.29 17.72 13.66 18.61 14.32 19.27C14.98 19.93 15.87 20.3 16.79 20.29ZM21 13.12L23.09 13.12C23.23 13.12 23.37 13.06 23.47 12.97C23.56 12.87 23.62 12.73 23.62 12.6L23.62 10.5C23.62 10.36 23.56 10.22 23.47 10.12C23.37 10.03 23.23 9.97 23.09 9.97L21 9.97C20.86 9.97 20.72 10.03 20.62 10.12C20.52 10.22 20.47 10.36 20.47 10.5L20.47 12.6C20.47 12.88 20.71 13.12 21 13.12ZM16.79 0C12.34 0 8.07 1.77 4.92 4.92C1.76 8.07 0 12.34 0 16.79C0 21.25 1.76 25.52 4.92 28.67C8.07 31.83 12.34 33.6 16.79 33.6C19 33.6 21.19 33.16 23.22 32.32C25.26 31.47 27.11 30.23 28.67 28.67C30.23 27.11 31.47 25.26 32.32 23.22C33.16 21.19 33.59 19 33.59 16.79C33.59 14.59 33.16 12.4 32.32 10.37C31.47 8.33 30.23 6.48 28.67 4.92C27.11 3.36 25.26 2.12 23.22 1.27C21.19 0.43 19 0 16.79 0ZM25.55 23.6C25.55 24.67 24.67 25.55 23.6 25.55L9.99 25.55C8.92 25.55 8.04 24.67 8.04 23.6L8.04 9.99C8.04 8.92 8.92 8.05 9.99 8.05L23.6 8.05C24.67 8.05 25.55 8.92 25.55 9.99L25.55 23.6Z" fill="#FFFFFF" fill-opacity="1.000000" fill-rule="nonzero"/>
</svg>
