<svg width="14.000000" height="20.000000" viewBox="0 0 14 20" fill="none" xmlns="http://www.w3.org/2000/svg" xmlns:xlink="http://www.w3.org/1999/xlink">
	<desc>
			Created with Pixso.
	</desc>
	<defs/>
	<path id="Vector" d="M14 7C14 6.08 13.81 5.17 13.46 4.32C13.11 3.47 12.59 2.7 11.94 2.05C11.29 1.4 10.52 0.88 9.67 0.53C8.82 0.18 7.91 0 7 0C6.08 0 5.17 0.18 4.32 0.53C3.47 0.88 2.7 1.4 2.05 2.05C1.4 2.7 0.88 3.47 0.53 4.32C0.18 5.17 0 6.08 0 7C0 8.38 0.41 9.67 1.1 10.76L1.09 10.76C3.45 14.46 7 20 7 20L12.9 10.76L12.89 10.76C13.61 9.64 13.99 8.33 14 7ZM7 10C6.2 10 5.44 9.68 4.87 9.12C4.31 8.55 4 7.79 4 7C4 6.2 4.31 5.44 4.87 4.87C5.44 4.31 6.2 4 7 4C7.79 4 8.55 4.31 9.12 4.87C9.68 5.44 10 6.2 10 7C10 7.79 9.68 8.55 9.12 9.12C8.55 9.68 7.79 10 7 10Z" fill="#F53838" fill-opacity="1.000000" fill-rule="nonzero"/>
</svg>
