<svg width="149.000000" height="36.232422" viewBox="0 0 149 36.2324" fill="none" xmlns="http://www.w3.org/2000/svg" xmlns:xlink="http://www.w3.org/1999/xlink">
	<desc>
			Created with Pixso.
	</desc>
	<defs/>
	<path id="LaslesVPN" d="M80.28 25.07Q80.37 25.11 80.48 25.11L82.14 25.11Q82.25 25.11 82.34 25.07Q82.41 25.03 82.47 24.97Q82.54 24.9 82.58 24.82Q82.62 24.73 82.62 24.63L82.62 11.39Q82.62 11.28 82.58 11.2Q82.54 11.12 82.47 11.05Q82.41 10.99 82.33 10.95Q82.24 10.91 82.14 10.91L80.48 10.91Q80.38 10.91 80.29 10.95Q80.21 10.98 80.13 11.05Q80.07 11.12 80.03 11.2Q79.99 11.28 79.99 11.39L79.99 24.63Q79.99 24.73 80.03 24.82Q80.06 24.9 80.13 24.97Q80.2 25.04 80.28 25.07ZM46.84 25.07Q46.93 25.11 47.04 25.11L55.71 25.11Q55.88 25.11 56 25.03Q56.04 25.01 56.07 24.97Q56.15 24.9 56.18 24.82Q56.22 24.73 56.22 24.63L56.22 23.23Q56.22 23.08 56.15 22.97Q56.12 22.92 56.07 22.87Q56.03 22.83 55.99 22.8Q55.87 22.73 55.71 22.73L49.37 22.73L49.37 11.59Q49.37 11.49 49.34 11.4Q49.3 11.32 49.23 11.25Q49.17 11.19 49.09 11.15Q49 11.11 48.9 11.11L47.04 11.11Q46.94 11.11 46.85 11.15Q46.77 11.18 46.69 11.25Q46.63 11.32 46.59 11.4Q46.55 11.49 46.55 11.59L46.55 24.63Q46.55 24.73 46.59 24.82Q46.62 24.9 46.69 24.97Q46.76 25.04 46.84 25.07ZM111.03 24.96Q111.22 25.11 111.54 25.11L114.6 25.11Q114.95 25.11 115.14 24.94Q115.15 24.93 115.15 24.93Q115.31 24.79 115.38 24.62Q115.4 24.57 115.42 24.51L119.49 11.71Q119.53 11.61 119.53 11.53Q119.53 11.48 119.52 11.44Q119.49 11.33 119.4 11.24Q119.31 11.15 119.21 11.12Q119.16 11.11 119.11 11.11L116.61 11.11Q116.34 11.11 116.18 11.25Q116.15 11.27 116.13 11.29Q115.95 11.47 115.9 11.63L113.07 20.87L110.24 11.63Q110.19 11.47 110.01 11.29Q109.99 11.27 109.97 11.25Q109.8 11.11 109.51 11.11L107.03 11.11Q106.95 11.11 106.88 11.14Q106.79 11.17 106.72 11.24Q106.63 11.33 106.61 11.43Q106.59 11.48 106.59 11.53Q106.59 11.61 106.63 11.71L110.72 24.51Q110.73 24.57 110.76 24.62Q110.84 24.79 110.99 24.93Q111.01 24.95 111.03 24.96ZM121.65 25.05Q121.76 25.11 121.89 25.11L124.6 25.11Q124.72 25.11 124.83 25.06Q124.9 25.03 124.97 24.96Q125.06 24.87 125.09 24.76Q125.12 24.69 125.12 24.61L125.12 20.23L127.5 20.23Q129.16 20.23 130.39 19.75Q131.3 19.4 131.91 18.75Q132.13 18.53 132.31 18.27Q132.99 17.27 132.99 15.73Q132.99 14.17 132.31 13.15Q132.12 12.88 131.89 12.64Q131.28 12 130.39 11.62Q129.16 11.11 127.5 11.11L121.89 11.11Q121.75 11.11 121.64 11.17Q121.58 11.21 121.53 11.25Q121.49 11.29 121.47 11.34Q121.4 11.45 121.4 11.61L121.4 24.61Q121.4 24.71 121.43 24.79Q121.46 24.88 121.53 24.96Q121.59 25.02 121.65 25.05ZM135.17 25.05Q135.28 25.11 135.41 25.11L137.82 25.11Q137.96 25.11 138.07 25.05Q138.12 25.02 138.17 24.96Q138.25 24.88 138.29 24.78Q138.32 24.7 138.32 24.61L138.32 17.33L143.19 24.73Q143.24 24.79 143.38 24.95L143.38 24.95Q143.53 25.11 143.86 25.11L146 25.11Q146.14 25.11 146.24 25.05Q146.3 25.02 146.35 24.96Q146.41 24.91 146.44 24.84Q146.49 24.73 146.49 24.59L146.49 11.61Q146.49 11.46 146.43 11.35Q146.4 11.3 146.35 11.25Q146.31 11.21 146.25 11.18Q146.14 11.11 146 11.11L143.59 11.11Q143.45 11.11 143.34 11.17Q143.28 11.21 143.23 11.25Q143.19 11.29 143.17 11.34Q143.1 11.45 143.1 11.61L143.1 19.17L138.22 11.49Q138.17 11.41 138.02 11.26Q137.88 11.11 137.53 11.11L135.41 11.11Q135.27 11.11 135.16 11.17Q135.1 11.21 135.05 11.25Q135.01 11.29 134.99 11.34Q134.92 11.45 134.92 11.61L134.92 24.61Q134.92 24.71 134.95 24.79Q134.98 24.88 135.05 24.96Q135.11 25.02 135.17 25.05ZM127.4 17.47L125.05 17.47L125.05 13.89L127.4 13.89Q128.35 13.89 128.79 14.36Q128.81 14.39 128.83 14.41Q128.96 14.56 129.05 14.72Q129.28 15.14 129.28 15.69Q129.28 16.47 128.89 16.91Q128.83 16.97 128.77 17.03Q128.74 17.05 128.72 17.07Q128.22 17.47 127.4 17.47ZM59.06 24.9Q59.9 25.31 60.94 25.31Q61.8 25.31 62.43 25.1Q63.06 24.89 63.49 24.55Q63.93 24.21 64.19 23.85L64.19 24.63Q64.19 24.75 64.23 24.84Q64.27 24.91 64.32 24.97Q64.36 25.01 64.4 25.04Q64.52 25.11 64.68 25.11L66.3 25.11Q66.41 25.11 66.5 25.07Q66.57 25.03 66.63 24.97Q66.7 24.9 66.74 24.82Q66.78 24.73 66.78 24.63L66.78 18.35Q66.78 17.57 66.54 16.87Q66.41 16.49 66.19 16.16Q66.01 15.89 65.77 15.65Q65.26 15.13 64.38 14.82Q63.51 14.51 62.25 14.51Q61.1 14.51 60.28 14.81Q59.46 15.11 58.94 15.54Q58.44 15.97 58.18 16.43Q57.93 16.89 57.91 17.21Q57.91 17.39 58 17.5Q58.01 17.52 58.02 17.53Q58.03 17.54 58.04 17.55Q58.15 17.65 58.35 17.65L59.93 17.65Q60.08 17.65 60.19 17.59Q60.31 17.53 60.39 17.39Q60.49 17.17 60.64 16.99Q60.82 16.78 61.06 16.62Q61.52 16.33 62.23 16.33Q63.26 16.33 63.68 16.79Q63.68 16.79 63.68 16.8Q64.1 17.25 64.1 18.09L64.1 18.51L61.36 18.91Q59.51 19.19 58.37 20.02Q57.79 20.45 57.51 21.02Q57.23 21.57 57.23 22.25Q57.23 22.71 57.38 23.12Q57.5 23.48 57.72 23.8Q57.77 23.87 57.83 23.94Q58.3 24.53 59.06 24.9L59.06 24.9ZM71.22 25.03Q72.07 25.31 73.27 25.31Q74.8 25.31 75.82 24.9Q76.85 24.49 77.39 23.77Q77.65 23.41 77.78 23.01Q77.92 22.6 77.92 22.15Q77.92 21.58 77.72 21.09Q77.66 20.94 77.59 20.8Q77.25 20.19 76.46 19.72Q75.68 19.25 74.33 19.01Q73.16 18.77 72.58 18.55Q71.99 18.33 71.8 18.08Q71.75 18.01 71.71 17.93Q71.61 17.73 71.61 17.49Q71.61 17.27 71.69 17.08Q71.79 16.84 72.01 16.66Q72.41 16.33 73.18 16.33Q73.78 16.33 74.14 16.49Q74.51 16.65 74.77 16.88Q75.04 17.11 75.26 17.31Q75.33 17.37 75.41 17.41Q75.43 17.42 75.44 17.42Q75.51 17.45 75.59 17.45L77.07 17.45Q77.14 17.45 77.21 17.43Q77.31 17.4 77.39 17.32Q77.44 17.28 77.47 17.23Q77.53 17.12 77.52 16.97Q77.5 16.67 77.21 16.26Q76.94 15.85 76.4 15.45Q75.88 15.05 75.08 14.78Q74.27 14.51 73.2 14.51Q71.81 14.51 70.88 14.97Q69.95 15.43 69.48 16.14Q69.14 16.67 69.05 17.24Q69.02 17.43 69.02 17.63Q69.02 18.4 69.34 18.98Q69.36 19.01 69.37 19.03Q69.73 19.63 70.47 20.03Q71.21 20.43 72.34 20.69Q73.47 20.93 74.09 21.14Q74.71 21.35 74.94 21.61Q74.98 21.65 75 21.69Q75.17 21.93 75.17 22.29Q75.17 22.54 75.07 22.75Q74.94 23.01 74.64 23.18Q74.11 23.49 73.34 23.49Q72.74 23.49 72.34 23.32Q71.94 23.15 71.64 22.91Q71.35 22.67 71.1 22.45Q70.99 22.35 70.93 22.33Q70.88 22.31 70.79 22.31L69.22 22.31Q69.16 22.31 69.11 22.32Q68.99 22.35 68.88 22.45Q68.83 22.49 68.8 22.55Q68.74 22.65 68.76 22.79Q68.78 23.07 69.04 23.49Q69.29 23.91 69.83 24.33Q70.37 24.75 71.22 25.03ZM86.72 24.44Q87.93 25.31 89.76 25.31Q90.87 25.31 91.74 25.02Q92.62 24.73 93.19 24.29Q93.77 23.85 94.08 23.39Q94.39 22.93 94.41 22.61Q94.42 22.51 94.39 22.44Q94.36 22.37 94.3 22.31Q94.27 22.28 94.23 22.26Q94.12 22.19 93.97 22.19L92.26 22.19Q92.04 22.19 91.92 22.24Q91.82 22.29 91.64 22.53Q91.53 22.67 91.29 22.89Q91.05 23.11 90.67 23.28Q90.29 23.45 89.74 23.45Q89.18 23.45 88.76 23.22Q88.66 23.16 88.56 23.09Q88.42 22.99 88.3 22.86Q88 22.56 87.82 22.14Q87.57 21.55 87.55 20.85L87.55 20.69L94.19 20.69Q94.34 20.69 94.45 20.63Q94.51 20.6 94.56 20.55Q94.63 20.48 94.66 20.39Q94.7 20.31 94.7 20.21L94.7 19.79Q94.7 18.23 94.14 17.04Q93.81 16.36 93.32 15.85Q92.95 15.47 92.48 15.18Q91.38 14.51 89.76 14.51Q88.3 14.51 87.21 15.1Q86.72 15.37 86.33 15.74Q85.86 16.18 85.52 16.78Q84.92 17.87 84.83 19.39Q84.81 19.57 84.81 19.88Q84.81 20.19 84.83 20.39Q84.93 22.6 86.07 23.86Q86.15 23.95 86.24 24.03Q86.46 24.26 86.72 24.44ZM98.7 25.03Q99.55 25.31 100.75 25.31Q102.28 25.31 103.3 24.9Q104.33 24.49 104.87 23.77Q105.13 23.41 105.26 23.01Q105.4 22.6 105.4 22.15Q105.4 21.58 105.2 21.09Q105.14 20.94 105.07 20.8Q104.73 20.19 103.94 19.72Q103.16 19.25 101.81 19.01Q100.64 18.77 100.06 18.55Q99.47 18.33 99.28 18.08Q99.23 18.01 99.19 17.93Q99.09 17.73 99.09 17.49Q99.09 17.27 99.17 17.08Q99.27 16.84 99.49 16.66Q99.89 16.33 100.66 16.33Q101.26 16.33 101.62 16.49Q101.99 16.65 102.25 16.88Q102.52 17.11 102.74 17.31Q102.81 17.37 102.89 17.41Q102.91 17.42 102.92 17.42Q102.99 17.45 103.07 17.45L104.55 17.45Q104.63 17.45 104.69 17.43Q104.79 17.4 104.88 17.32Q104.92 17.28 104.95 17.23Q105.01 17.12 105 16.97Q104.98 16.67 104.69 16.26Q104.42 15.85 103.88 15.45Q103.36 15.05 102.56 14.78Q101.76 14.51 100.68 14.51Q99.29 14.51 98.36 14.97Q97.43 15.43 96.96 16.14Q96.62 16.67 96.53 17.24Q96.5 17.43 96.5 17.63Q96.5 18.4 96.82 18.98Q96.84 19.01 96.85 19.03Q97.21 19.63 97.95 20.03Q98.69 20.43 99.82 20.69Q100.95 20.93 101.57 21.14Q102.19 21.35 102.42 21.61Q102.46 21.65 102.48 21.69Q102.65 21.93 102.65 22.29Q102.65 22.54 102.55 22.75Q102.42 23.01 102.12 23.18Q101.59 23.49 100.82 23.49Q100.22 23.49 99.82 23.32Q99.42 23.15 99.12 22.91Q98.83 22.67 98.58 22.45Q98.47 22.35 98.41 22.33Q98.36 22.31 98.27 22.31L96.7 22.31Q96.64 22.31 96.59 22.32Q96.47 22.35 96.36 22.45Q96.31 22.49 96.28 22.55Q96.22 22.65 96.24 22.79Q96.26 23.07 96.52 23.49Q96.77 23.91 97.31 24.33Q97.85 24.75 98.7 25.03ZM91.97 19.01L87.55 19.01L87.55 18.95Q87.55 18.17 87.8 17.58Q87.99 17.15 88.3 16.86Q88.42 16.75 88.55 16.66Q88.58 16.65 88.61 16.63Q89.09 16.33 89.76 16.33Q90.41 16.33 90.88 16.62Q90.92 16.64 90.95 16.66Q91.09 16.76 91.22 16.87Q91.53 17.16 91.71 17.58Q91.97 18.17 91.97 18.95L91.97 19.01ZM62.7 23.2Q62.2 23.41 61.61 23.41Q61.28 23.41 60.96 23.33Q60.85 23.3 60.74 23.26Q60.39 23.14 60.14 22.9Q60.09 22.86 60.04 22.8Q59.94 22.69 59.88 22.55Q59.77 22.33 59.77 22.05Q59.77 21.89 59.82 21.75Q59.93 21.36 60.35 21.07Q60.94 20.67 62.11 20.49L64.11 20.17L64.11 20.59Q64.11 21.55 63.78 22.18Q63.53 22.66 63.15 22.95Q63.02 23.04 62.88 23.11Q62.8 23.16 62.7 23.2Z" fill="#0B132A" fill-opacity="1.000000" fill-rule="evenodd"/>
	<path id="Vector" d="M31.14 13.64L31.12 13.62C31.12 13.62 31.12 13.62 31.12 13.62L17.5 0L3.87 13.62C3.87 13.62 3.87 13.62 3.87 13.62L3.85 13.64C1.77 15.74 0.44 18.47 0.09 21.4C-0.26 24.33 0.37 27.3 1.9 29.83C3.43 32.36 5.76 34.3 8.52 35.36C11.28 36.41 14.31 36.51 17.13 35.64C17.37 35.57 17.62 35.57 17.86 35.64C20.68 36.51 23.72 36.41 26.47 35.36C29.23 34.3 31.56 32.36 33.09 29.83C34.62 27.3 35.25 24.33 34.9 21.4C34.55 18.47 33.22 15.74 31.14 13.64ZM8.72 22.62C8.65 22.69 8.6 22.77 8.56 22.86C8.53 22.94 8.51 23.04 8.51 23.13C8.53 25.53 9.21 27.89 10.47 29.93C10.5 29.98 10.52 30.03 10.51 30.09C10.51 30.14 10.49 30.19 10.45 30.24C10.42 30.28 10.37 30.31 10.32 30.32C10.26 30.33 10.21 30.33 10.16 30.31C9.21 29.91 8.35 29.33 7.62 28.6C6.13 27.11 5.29 25.09 5.29 22.99C5.29 20.88 6.13 18.86 7.61 17.37L17.5 7.49L27.38 17.37C28.86 18.86 29.7 20.88 29.7 22.99C29.7 25.09 28.86 27.11 27.37 28.6C26.64 29.33 25.78 29.91 24.83 30.31C24.78 30.33 24.73 30.33 24.68 30.32C24.62 30.31 24.57 30.28 24.54 30.24C24.5 30.19 24.48 30.14 24.48 30.09C24.47 30.03 24.49 29.98 24.52 29.93C25.78 27.89 26.46 25.53 26.48 23.13C26.48 23.04 26.46 22.94 26.43 22.86C26.39 22.77 26.34 22.69 26.27 22.62L21.6 17.67C21.55 17.63 21.49 17.61 21.43 17.61C21.37 17.61 21.31 17.63 21.27 17.67C21.22 17.71 21.19 17.76 21.18 17.82C21.17 17.88 21.18 17.94 21.21 17.99C23.02 21.28 21.46 26 18.86 28.6L18.85 28.61C18.49 28.97 18 29.17 17.5 29.17C16.99 29.17 16.5 28.97 16.15 28.61L16.13 28.6C13.53 26 11.97 21.28 13.78 17.99C13.81 17.94 13.82 17.88 13.81 17.82C13.8 17.76 13.77 17.71 13.72 17.67C13.68 17.63 13.62 17.61 13.56 17.61C13.5 17.61 13.44 17.63 13.39 17.67L8.72 22.62Z" fill="#F53838" fill-opacity="1.000000" fill-rule="nonzero"/>
</svg>
