<svg width="24.000000" height="24.000000" viewBox="0 0 24 24" fill="none" xmlns="http://www.w3.org/2000/svg" xmlns:xlink="http://www.w3.org/1999/xlink">
	<desc>
			Created with Pixso.
	</desc>
	<defs>
		<clipPath id="clip0_330">
			<rect id="bx:bxs-server" rx="-0.500000" width="23.000000" height="23.000000" transform="translate(0.500000 0.500000)" fill="white" fill-opacity="0"/>
		</clipPath>
	</defs>
	<rect id="bx:bxs-server" rx="-0.500000" width="23.000000" height="23.000000" transform="translate(0.500000 0.500000)" fill="#FFFFFF" fill-opacity="0"/>
	<g clip-path="url(#clip0_330)">
		<path id="Vector" d="M20 3L4 3C3.46 3 2.96 3.21 2.58 3.58C2.21 3.96 2 4.46 2 5L2 9C2 9.53 2.21 10.03 2.58 10.41C2.96 10.78 3.46 11 4 11L20 11C20.53 11 21.03 10.78 21.41 10.41C21.78 10.03 22 9.53 22 9L22 5C22 4.46 21.78 3.96 21.41 3.58C21.03 3.21 20.53 3 20 3ZM14 8C13.44 8 13 7.55 13 7C13 6.44 13.44 6 14 6C14.55 6 15 6.44 15 7C15 7.55 14.55 8 14 8ZM18 8C17.44 8 17 7.55 17 7C17 6.44 17.44 6 18 6C18.55 6 19 6.44 19 7C19 7.55 18.55 8 18 8ZM20 13L4 13C3.46 13 2.96 13.21 2.58 13.58C2.21 13.96 2 14.46 2 15L2 19C2 19.53 2.21 20.03 2.58 20.41C2.96 20.78 3.46 21 4 21L20 21C20.53 21 21.03 20.78 21.41 20.41C21.78 20.03 22 19.53 22 19L22 15C22 14.46 21.78 13.96 21.41 13.58C21.03 13.21 20.53 13 20 13ZM14 18C13.44 18 13 17.55 13 17C13 16.44 13.44 16 14 16C14.55 16 15 16.44 15 17C15 17.55 14.55 18 14 18ZM18 18C17.44 18 17 17.55 17 17C17 16.44 17.44 16 18 16C18.55 16 19 16.44 19 17C19 17.55 18.55 18 18 18Z" fill="#F53838" fill-opacity="1.000000" fill-rule="nonzero"/>
	</g>
</svg>
