<svg width="16.000000" height="16.000000" viewBox="0 0 16 16" fill="none" xmlns="http://www.w3.org/2000/svg" xmlns:xlink="http://www.w3.org/1999/xlink">
	<desc>
			Created with Pixso.
	</desc>
	<defs>
		<clipPath id="clip0_114">
			<rect id="ant-design:star-filled" rx="-0.500000" width="15.000000" height="15.000000" transform="translate(0.500000 0.500000)" fill="white" fill-opacity="0"/>
		</clipPath>
	</defs>
	<rect id="ant-design:star-filled" rx="-0.500000" width="15.000000" height="15.000000" transform="translate(0.500000 0.500000)" fill="#FFFFFF" fill-opacity="0"/>
	<g clip-path="url(#clip0_114)">
		<path id="Vector" d="M14.18 5.51L10.22 4.94L8.44 1.34C8.39 1.24 8.32 1.16 8.22 1.11C7.97 0.99 7.67 1.09 7.55 1.34L5.77 4.94L1.81 5.51C1.7 5.53 1.6 5.58 1.52 5.66C1.43 5.75 1.38 5.88 1.38 6.01C1.38 6.15 1.43 6.27 1.53 6.37L4.4 9.16L3.72 13.12C3.71 13.21 3.72 13.3 3.75 13.39C3.79 13.47 3.84 13.55 3.92 13.6C4 13.66 4.08 13.69 4.18 13.7C4.27 13.71 4.36 13.69 4.45 13.64L8 11.78L11.54 13.64C11.64 13.69 11.75 13.71 11.86 13.69C12.13 13.65 12.32 13.39 12.27 13.12L11.59 9.16L14.46 6.37C14.54 6.29 14.59 6.19 14.61 6.08C14.65 5.81 14.46 5.55 14.18 5.51Z" fill="#FEA250" fill-opacity="1.000000" fill-rule="nonzero"/>
	</g>
</svg>
