<svg width="33.600006" height="33.600098" viewBox="0 0 33.6 33.6001" fill="none" xmlns="http://www.w3.org/2000/svg" xmlns:xlink="http://www.w3.org/1999/xlink">
	<desc>
			Created with Pixso.
	</desc>
	<defs/>
	<path id="Vector" d="M16.79 0C7.52 0 0 7.52 0 16.79C0 26.07 7.52 33.6 16.79 33.6C26.07 33.6 33.59 26.07 33.59 16.79C33.59 7.52 26.07 0 16.79 0ZM23.63 13.76C23.64 13.9 23.64 14.04 23.64 14.18C23.64 18.56 20.31 23.6 14.22 23.6C12.43 23.6 10.66 23.09 9.15 22.11C9.41 22.14 9.67 22.16 9.94 22.16C11.49 22.16 12.92 21.63 14.05 20.74C13.36 20.73 12.69 20.5 12.14 20.09C11.58 19.68 11.17 19.1 10.96 18.45C11.46 18.54 11.97 18.52 12.45 18.39C11.7 18.24 11.03 17.83 10.55 17.24C10.06 16.65 9.8 15.91 9.8 15.14L9.8 15.1C10.24 15.35 10.76 15.5 11.3 15.52C10.6 15.05 10.1 14.33 9.91 13.51C9.72 12.69 9.85 11.83 10.27 11.1C11.11 12.12 12.14 12.96 13.32 13.55C14.49 14.15 15.78 14.49 17.09 14.56C16.93 13.85 17 13.1 17.3 12.44C17.6 11.77 18.11 11.22 18.75 10.88C19.4 10.54 20.14 10.41 20.85 10.53C21.57 10.65 22.23 11.01 22.73 11.54C23.47 11.39 24.18 11.12 24.83 10.73C24.59 11.5 24.07 12.15 23.38 12.57C24.03 12.49 24.68 12.31 25.28 12.04C24.84 12.71 24.28 13.29 23.63 13.76Z" fill="#FFFFFF" fill-opacity="1.000000" fill-rule="nonzero"/>
</svg>
