<svg width="15.864441" height="18.000000" viewBox="0 0 15.8644 18" fill="none" xmlns="http://www.w3.org/2000/svg" xmlns:xlink="http://www.w3.org/1999/xlink">
	<desc>
			Created with Pixso.
	</desc>
	<defs/>
	<path id="Vector" d="M7.93 7.19C8.88 7.19 9.8 6.82 10.47 6.14C11.15 5.47 11.53 4.55 11.53 3.59C11.53 2.64 11.15 1.72 10.47 1.05C9.8 0.37 8.88 0 7.93 0C6.97 0 6.06 0.37 5.38 1.05C4.71 1.72 4.33 2.64 4.33 3.59C4.33 4.55 4.71 5.47 5.38 6.14C6.06 6.82 6.97 7.19 7.93 7.19ZM2.83 18C1 18 -0.53 16.46 0.17 14.78C0.59 13.76 1.21 12.84 1.99 12.06C2.77 11.28 3.69 10.66 4.71 10.23C5.73 9.81 6.82 9.59 7.93 9.59C9.03 9.59 10.12 9.81 11.14 10.23C12.16 10.66 13.09 11.28 13.87 12.06C14.65 12.84 15.27 13.76 15.69 14.78C16.39 16.46 14.85 18 13.03 18L2.83 18Z" fill="#F53838" fill-opacity="1.000000" fill-rule="evenodd"/>
</svg>
