<svg width="23.000000" height="24.000000" viewBox="0 0 23 24" fill="none" xmlns="http://www.w3.org/2000/svg" xmlns:xlink="http://www.w3.org/1999/xlink">
	<desc>
			Created with Pixso.
	</desc>
	<defs/>
	<path id="Vector" d="M11.5 2.27C13.73 2.27 15.83 3.12 17.42 4.68C19.01 6.24 19.88 8.31 19.88 10.52C19.88 12.33 19.3 14.05 18.18 15.5C17.25 16.71 15.97 17.65 14.53 18.2L14.22 18.32L14.22 19.14L14.59 19.14C14.85 19.14 15.07 19.35 15.07 19.61C15.07 19.84 14.9 20.03 14.68 20.07L14.59 20.08L14.23 20.08L14.23 21.1L14.59 21.1C14.85 21.1 15.07 21.31 15.07 21.57C15.07 21.8 14.9 21.99 14.68 22.03L14.59 22.04L14.24 22.04L14.24 23.52C14.24 23.65 14.19 23.77 14.1 23.86C14.04 23.92 13.95 23.97 13.86 23.99L13.77 24L9.22 24C9.1 24 8.98 23.95 8.89 23.86C8.82 23.79 8.78 23.71 8.76 23.62L8.75 23.52L8.75 22.04L8.4 22.04C8.14 22.04 7.92 21.83 7.92 21.57C7.92 21.34 8.09 21.15 8.31 21.11L8.4 21.1L8.76 21.1L8.76 20.08L8.4 20.08C8.14 20.08 7.92 19.87 7.92 19.61C7.92 19.38 8.09 19.19 8.31 19.15L8.4 19.14L8.77 19.14L8.77 18.32C7.19 17.78 5.78 16.77 4.77 15.45C3.66 13.98 3.08 12.23 3.11 10.39C3.14 8.27 4.03 6.24 5.62 4.69C7.13 3.22 9.07 2.37 11.11 2.28L11.43 2.27L11.5 2.27ZM13.29 22.04L9.7 22.04L9.7 23.06L13.29 23.06L13.29 22.04ZM13.28 20.08L9.71 20.08L9.71 21.1L13.28 21.1L13.28 20.08ZM11.5 3.21L11.44 3.21C7.5 3.23 4.11 6.53 4.06 10.41C4.01 13.67 6.2 16.6 9.38 17.53C9.55 17.58 9.68 17.72 9.71 17.89L9.72 17.98L9.71 19.14L13.28 19.14L13.27 17.98C13.27 17.77 13.41 17.58 13.61 17.53C16.75 16.61 18.93 13.73 18.93 10.52C18.93 8.56 18.16 6.72 16.75 5.34C15.34 3.96 13.48 3.21 11.5 3.21ZM12.32 4.99C12.55 4.99 12.73 5.17 12.73 5.39L12.73 5.71C13.21 5.83 13.66 6.02 14.07 6.26L14.3 6.03C14.46 5.88 14.71 5.88 14.87 6.03L16.04 7.2C16.2 7.35 16.2 7.6 16.04 7.76L15.81 7.98C16.06 8.39 16.25 8.84 16.37 9.32L16.69 9.32C16.91 9.32 17.09 9.49 17.09 9.71L17.09 11.36C17.09 11.58 16.91 11.76 16.69 11.76L16.37 11.76C16.25 12.23 16.06 12.68 15.81 13.09L16.04 13.32C16.2 13.47 16.2 13.72 16.04 13.88L14.87 15.04C14.71 15.19 14.46 15.19 14.3 15.04L14.07 14.81C13.66 15.06 13.21 15.25 12.73 15.37L12.73 15.69C12.73 15.91 12.55 16.08 12.32 16.08L10.67 16.08C10.44 16.08 10.26 15.91 10.26 15.69L10.26 15.37C9.79 15.25 9.33 15.06 8.92 14.81L8.69 15.04C8.53 15.19 8.28 15.19 8.12 15.04L6.95 13.88C6.79 13.72 6.79 13.47 6.95 13.32L7.18 13.09C6.93 12.68 6.74 12.23 6.62 11.76L6.3 11.76C6.08 11.76 5.9 11.58 5.9 11.36L5.9 9.71C5.9 9.49 6.08 9.32 6.3 9.32L6.62 9.32C6.74 8.84 6.93 8.39 7.18 7.98L6.95 7.76C6.79 7.6 6.79 7.35 6.95 7.2L8.12 6.03C8.28 5.88 8.53 5.88 8.69 6.03L8.92 6.26C9.33 6.02 9.79 5.83 10.26 5.71L10.26 5.39C10.26 5.17 10.44 4.99 10.67 4.99L12.32 4.99ZM11.5 7.72C9.92 7.72 8.65 8.98 8.65 10.54C8.65 12.09 9.92 13.36 11.5 13.36C13.07 13.36 14.34 12.09 14.34 10.54C14.34 8.98 13.07 7.72 11.5 7.72ZM22.52 11.87C22.78 11.87 23 12.08 23 12.34C23 12.57 22.83 12.76 22.61 12.8L22.52 12.81L22.02 12.81C21.76 12.81 21.55 12.6 21.55 12.34C21.55 12.11 21.72 11.92 21.94 11.88L22.02 11.87L22.52 11.87ZM0.97 11.87C1.23 11.87 1.44 12.08 1.44 12.34C1.44 12.57 1.27 12.76 1.05 12.8L0.97 12.81L0.47 12.81C0.21 12.81 0 12.6 0 12.34C0 12.11 0.16 11.92 0.38 11.88L0.47 11.87L0.97 11.87ZM3.11 3.44L3.18 3.5L3.64 3.96C3.83 4.14 3.83 4.43 3.64 4.62C3.55 4.71 3.43 4.76 3.31 4.76C3.21 4.76 3.12 4.73 3.04 4.68L2.97 4.62L2.51 4.17C2.33 3.99 2.32 3.69 2.51 3.51C2.67 3.35 2.92 3.32 3.11 3.44ZM20.48 3.51C20.64 3.67 20.66 3.91 20.54 4.1L20.48 4.17L20.02 4.62C19.93 4.71 19.81 4.76 19.68 4.76C19.56 4.76 19.44 4.71 19.35 4.62C19.19 4.46 19.17 4.21 19.29 4.03L19.35 3.96L19.81 3.5C19.99 3.32 20.3 3.32 20.48 3.51ZM11.5 0C11.73 0 11.92 0.16 11.96 0.38L11.97 0.46L11.97 0.95C11.97 1.21 11.76 1.42 11.5 1.42C11.26 1.42 11.07 1.26 11.03 1.04L11.02 0.95L11.02 0.46C11.02 0.2 11.23 0 11.5 0Z" fill="#FFFFFF" fill-opacity="1.000000" fill-rule="nonzero"/>
</svg>
